<svg xmlns="http://www.w3.org/2000/svg" viewBox="0 0 687.84 439.06"><defs><style>.cls-1{fill:#ddd7c9;}</style></defs><g id="Capa_2" data-name="Capa 2"><g id="Capa_1-2" data-name="Capa 1"><polygon class="cls-1" points="77 390.48 108.75 390.48 108.75 193.82 185.75 193.82 185.75 165.9 0 165.9 0 193.82 77 193.82 77 390.48"/><path class="cls-1" d="M566.2,290.51l-40.44,41.07v57.19H494.17V47.52h31.59V291.14L645.82,167.61h36l-94.47,99.52L687.84,388.77h-37ZM557,47.52,509.46,0,462,47.52Z"/><path class="cls-1" d="M344.07,439.06c-31.71,0-60.65-7-86-20.93a155.33,155.33,0,0,1-60-57.48c-14.45-24.27-21.78-52-21.78-82.46s7.33-58.27,21.78-82.7A153.2,153.2,0,0,1,258.25,138c25.54-13.73,54.72-20.7,86.73-20.7,25.14,0,48.26,4.16,68.73,12.38a140.38,140.38,0,0,1,49.84,33.53L440,186.76C414.2,163,382.86,151,346.83,151c-25,0-47.78,5.48-67.67,16.29a120.18,120.18,0,0,0-47.11,45.46c-11.31,19.32-17,41.34-17,65.47,0,23.82,5.73,45.7,17,65a121.93,121.93,0,0,0,47.09,45.68c19.88,11,42.5,16.53,67.22,16.53,29.37,0,55.38-7.15,77.32-21.25l1.66-1.07V291.63H325.73V259.29H462.15V291h.06v109.1a169.11,169.11,0,0,1-53.13,28.61A205.24,205.24,0,0,1,344.07,439.06Z"/></g></g></svg>